<svg width="60" height="240" viewBox="0 0 60 240" fill="none" xmlns="http://www.w3.org/2000/svg">
<g opacity="0.8">
<rect width="60" height="60" fill="#C13ED4"/>
<path d="M13.2715 30.4997C13.2715 22.8492 13.2715 19.0239 15.6482 16.6472C18.0249 14.2705 21.8501 14.2705 29.5007 14.2705C37.1512 14.2705 40.9764 14.2705 43.3531 16.6472C45.7298 19.0239 45.7298 22.8492 45.7298 30.4997C45.7298 38.1502 45.7298 41.9754 43.3531 44.3521C40.9764 46.7288 37.1512 46.7288 29.5007 46.7288C21.8501 46.7288 18.0249 46.7288 15.6482 44.3521C13.2715 41.9754 13.2715 38.1502 13.2715 30.4997Z" stroke="#FBFAFA" stroke-width="1.5" stroke-linejoin="round"/>
<path d="M37.1875 30.5C37.1875 34.7457 33.7457 38.1875 29.5 38.1875C25.2543 38.1875 21.8125 34.7457 21.8125 30.5C21.8125 26.2543 25.2543 22.8125 29.5 22.8125C33.7457 22.8125 37.1875 26.2543 37.1875 30.5Z" stroke="#FBFAFA" stroke-width="1.5"/>
<path d="M38.9102 21.104L38.8944 21.104" stroke="#FBFAFA" stroke-width="2" stroke-linecap="round" stroke-linejoin="round"/>
</g>
<g opacity="0.8">
<rect width="60" height="60" transform="translate(0 60)" fill="#6AA2BA"/>
<path d="M18.8795 90.4257C17.6549 88.2905 17.0637 86.547 16.7072 84.7796C16.1799 82.1658 17.3865 79.6125 19.3855 77.9832C20.2303 77.2947 21.1988 77.5299 21.6984 78.4262L22.8262 80.4496C23.7202 82.0534 24.1672 82.8553 24.0785 83.7055C23.9899 84.5556 23.3871 85.2481 22.1814 86.6329L18.8795 90.4257ZM18.8795 90.4257C21.358 94.7475 25.2477 98.6393 29.5745 101.121M29.5745 101.121C31.7097 102.345 33.4532 102.937 35.2206 103.293C37.8344 103.82 40.3877 102.614 42.017 100.615C42.7055 99.7699 42.4703 98.8014 41.574 98.3018L39.5506 97.174C37.9468 96.28 37.1449 95.833 36.2947 95.9217C35.4446 96.0103 34.7521 96.6131 33.3673 97.8188L29.5745 101.121Z" stroke="#F8F6F4" stroke-width="1.5" stroke-linejoin="round"/>
</g>
<g opacity="0.8">
<rect width="60" height="60" transform="translate(0 120)" fill="#25D366"/>
<path d="M29.5 165.75C38.4746 165.75 45.75 158.475 45.75 149.5C45.75 140.525 38.4746 133.25 29.5 133.25C20.5254 133.25 13.25 140.525 13.25 149.5C13.25 151.741 13.7035 153.875 14.5237 155.817C14.977 156.891 15.2037 157.427 15.2317 157.833C15.2598 158.239 15.1404 158.685 14.9017 159.577L13.25 165.75L19.423 164.098C20.3153 163.86 20.7615 163.74 21.167 163.768C21.5726 163.796 22.1093 164.023 23.1826 164.476C25.1246 165.297 27.2593 165.75 29.5 165.75Z" stroke="#FBFAFA" stroke-width="1.5" stroke-linejoin="round"/>
<path d="M23.9558 150.113L25.371 148.355C25.9675 147.615 26.7049 146.925 26.7626 145.938C26.7772 145.689 26.6019 144.571 26.2513 142.334C26.1135 141.454 25.2927 141.375 24.5817 141.375C23.6551 141.375 23.1918 141.375 22.7318 141.585C22.1504 141.851 21.5534 142.598 21.4224 143.223C21.3188 143.718 21.3958 144.059 21.5498 144.741C22.2041 147.639 23.7391 150.501 26.1192 152.881C28.4992 155.261 31.3609 156.796 34.2585 157.45C34.9407 157.604 35.2818 157.681 35.7768 157.578C36.4025 157.447 37.1493 156.85 37.4149 156.268C37.625 155.808 37.625 155.345 37.625 154.418C37.625 153.707 37.5457 152.886 36.6665 152.749C34.4293 152.398 33.3107 152.223 33.0616 152.237C32.0752 152.295 31.3854 153.032 30.6446 153.629L28.8868 155.044" stroke="#FBFAFA" stroke-width="1.5"/>
</g>
<g opacity="0.8">
<rect width="60" height="60" transform="translate(0 180)" fill="#191919"/>
<path d="M17.5 197.5L42.5 222.5M42.5 197.5L17.5 222.5" stroke="#F8F6F4" stroke-linecap="round"/>
</g>
</svg>
